<svg id="Capa_1" enable-background="new 0 0 511.521 511.521" height="512" viewBox="0 0 511.521 511.521" width="512" xmlns="http://www.w3.org/2000/svg"><g><path d="m495.209 460.098-20.162-50.372-9.774-171.65c-3.128-54.949-33.584-103.954-81.469-131.089l-59.304-33.606 9.189-45.621c1.059-5.252-.529-10.69-4.248-14.548-3.718-3.858-9.095-5.645-14.383-4.781l-31.74 5.188c-.304.051-.616-.009-.882-.165l-19.012-11.19c-5.258-3.095-11.74-3.011-16.917.219l-17.524 10.934c-.272.169-.595.234-.91.182l-31.612-5.167c-5.287-.867-10.665.923-14.382 4.781-3.718 3.857-5.306 9.296-4.248 14.547l9.19 45.622-59.304 33.605c-47.884 27.135-78.34 76.14-81.468 131.088l-.669 11.745c-.235 4.136 2.926 7.679 7.062 7.914 4.133.245 7.679-2.926 7.914-7.062l.668-11.745c2.837-49.835 30.459-94.281 73.888-118.891l4.904-2.779h231.49l4.903 2.778c43.429 24.61 71.051 69.055 73.889 118.891l9.392 164.947h-34.797c-4.142 0-7.5 3.358-7.5 7.5s3.358 7.5 7.5 7.5h37.66l18.731 46.797c2.819 7.042 1.997 14.683-2.255 20.964-4.252 6.282-11.041 9.884-18.625 9.884h-409.286c-7.585 0-14.374-3.603-18.625-9.884s-5.074-13.922-2.255-20.964l18.731-46.797h16.337c4.142 0 7.5-3.358 7.5-7.5s-3.358-7.5-7.5-7.5h-13.474l6.904-121.241c.235-4.135-2.926-7.679-7.062-7.914-4.124-.227-7.679 2.926-7.914 7.062l-7.286 127.944-20.162 50.372c-4.629 11.566-3.225 24.63 3.759 34.947 6.983 10.317 18.589 16.476 31.047 16.476h409.284c12.458 0 24.064-6.159 31.047-16.476s8.389-23.38 3.76-34.945zm-302.33-436.476c.319-.33.712-.46 1.163-.387l31.612 5.167c3.909.638 7.913-.164 11.271-2.261l17.523-10.933c.418-.262.943-.269 1.368-.018l19.013 11.191c3.28 1.93 7.156 2.655 10.911 2.042l31.739-5.188c.452-.074.845.056 1.163.387.319.331.434.726.343 1.176l-9.05 44.929h-108.35l-9.05-44.93c-.09-.449.025-.845.344-1.175zm-26.392 78.636 30.938-17.531h116.672l30.938 17.531z"/><path d="m254.266 418.677c4.142 0 7.5-3.358 7.5-7.5v-18.364c37.278-3.771 66.47-35.335 66.47-73.591 0-15.184-9.501-36.452-28.24-63.216-14.56-20.795-30.838-39.388-37.162-46.417-2.184-2.427-5.307-3.819-8.569-3.819s-6.385 1.392-8.569 3.819c-6.323 7.028-22.602 25.621-37.162 46.417-18.738 26.764-28.239 48.033-28.239 63.216 0 10.929 2.343 21.472 6.963 31.336 1.757 3.752 6.223 5.367 9.973 3.611 3.751-1.757 5.368-6.222 3.611-9.973-1.033-2.205-1.907-4.457-2.653-6.742l48.576 27.939v12.323c-10.021-1.263-19.475-5.057-27.681-11.167-3.321-2.474-8.02-1.787-10.495 1.536-2.474 3.322-1.787 8.021 1.536 10.495 10.818 8.056 23.363 12.897 36.64 14.225v18.372c.001 4.142 3.359 7.5 7.501 7.5zm7.5-40.978v-12.305l48.571-27.937c-6.951 21.321-25.739 37.329-48.571 40.242zm-37.508-117.873 22.508 12.946v26.862l-35.511-20.425c3.883-6.325 8.285-12.85 13.003-19.383zm73.02 19.383-35.512 20.425v-26.862l22.508-12.946c4.718 6.533 9.121 13.058 13.004 19.383zm15.928 39.294-51.44 29.587v-31.152l42.896-24.673c5.149 10.075 8.342 19.143 8.544 26.238zm-37.994-70.769-13.446 7.734v-24.291c4.522 5.338 9.052 10.9 13.446 16.557zm-28.446-16.557v24.291l-13.446-7.734c4.394-5.657 8.924-11.219 13.446-16.557zm-51.439 87.326c.202-7.095 3.395-16.164 8.544-26.238l42.896 24.673v31.152z"/><path d="m344.541 403.321c2.989 2.867 7.737 2.769 10.604-.221 25.082-26.148 38.895-60.506 38.895-96.743 0-77.072-62.703-139.774-139.774-139.774s-139.774 62.703-139.774 139.774 62.702 139.774 139.774 139.774c26.346 0 52.02-7.379 74.244-21.339 3.508-2.203 4.565-6.833 2.362-10.34-2.204-3.507-6.833-4.565-10.34-2.362-19.832 12.457-42.746 19.041-66.266 19.041-68.801 0-124.774-55.974-124.774-124.774s55.973-124.774 124.774-124.774 124.774 55.974 124.774 124.774c0 32.348-12.331 63.018-34.72 86.359-2.867 2.99-2.768 7.738.221 10.605z"/></g></svg>