<svg id="Capa_1" enable-background="new 0 0 513.438 513.438" height="512" viewBox="0 0 513.438 513.438" width="512" xmlns="http://www.w3.org/2000/svg"><g><path d="m256.529 0c-34.375 0-66.142 8.643-94.42 25.688-26.037 15.694-48.004 38.215-63.525 65.127-15.721 27.258-24.378 58.107-25.035 89.21-.689 32.637 7.56 64.775 23.854 92.939 2.075 3.586 6.663 4.809 10.248 2.736 3.585-2.074 4.81-6.662 2.736-10.248-14.92-25.788-22.473-55.218-21.841-85.11.604-28.588 8.568-56.955 23.032-82.033 14.255-24.718 34.407-45.388 58.274-59.774 25.908-15.617 55.07-23.535 86.678-23.535 68.314 0 127.409 39.032 154.222 101.865s14.108 132.505-33.159 181.828l-17.93 18.71c-14.858 15.504-25.71 33.906-32.042 54.055l-33.411-20.854c-9.211-5.749-19.491-9.206-29.991-10.389v-22.64c11.632-.838 22.912-3.629 33.624-8.338 3.792-1.667 5.515-6.092 3.848-9.884s-6.09-5.515-9.884-3.848c-8.797 3.867-18.048 6.215-27.587 7.022v-42.4l79.758-45.875c.015.44.029.88.029 1.308 0 24.289-9.74 46.848-27.426 63.521-3.014 2.841-3.153 7.588-.312 10.602 1.476 1.565 3.464 2.355 5.458 2.355 1.845 0 3.695-.677 5.144-2.043 20.723-19.537 32.136-45.972 32.136-74.435 0-47.733-70.757-130.096-92.444-154.202-2.508-2.788-6.096-4.387-9.844-4.387s-7.335 1.599-9.844 4.387c-7.455 8.288-22.311 25.261-38.04 45.829-2.516 3.291-1.889 7.998 1.401 10.514 3.291 2.517 7.997 1.889 10.514-1.401 1.114-1.456 2.22-2.887 3.323-4.305l25.146 14.463v49.53l-50.381-28.978c1.117-1.701 2.259-3.417 3.437-5.156 2.324-3.429 1.428-8.092-2.001-10.416-3.428-2.324-8.093-1.428-10.416 2.001-23.508 34.689-35.427 62.318-35.427 82.12 0 53.879 41.875 98.158 94.788 102.012v22.499c-10.978 1.026-21.757 4.531-31.371 10.532l-32.58 20.335c-6.354-19.945-17.143-38.165-31.873-53.536l-17.931-18.711c-2.341-2.443-4.644-4.984-6.842-7.552-2.694-3.146-7.429-3.512-10.575-.818s-3.513 7.429-.818 10.575c2.38 2.779 4.872 5.53 7.406 8.173l17.93 18.71c18.018 18.802 29.458 42.37 33.084 68.157l.341 2.424c-7.805 2.389-13.499 9.657-13.499 18.234v18.616c0 10.514 8.554 19.068 19.069 19.068h.751v7.795c0 12.785 10.401 23.186 23.186 23.186h6.213c3.455 16.081 17.768 28.176 34.867 28.176h18.904c17.098 0 31.411-12.095 34.867-28.176h6.213c12.785 0 23.186-10.401 23.186-23.186v-7.795h1.751c10.515 0 19.069-8.554 19.069-19.068v-18.616c0-8.577-5.694-15.845-13.499-18.234l.341-2.424c3.626-25.787 15.067-49.355 33.084-68.157l17.93-18.71c51.495-53.735 65.337-129.641 36.125-198.094-29.212-68.45-93.593-110.974-168.019-110.974zm7.69 242.824v-49.53l58.376-33.576c8.902 14.849 15.111 27.928 18.469 38.906zm50.381-95.812-50.381 28.978v-49.53l25.147-14.464c5.831 7.497 11.847 15.549 17.661 23.854 2.666 3.809 5.186 7.527 7.573 11.162zm-34.674-46.89-15.707 9.034v-27.771c4.475 5.172 9.863 11.538 15.707 18.737zm-46.415-.001c5.813-7.161 11.184-13.511 15.708-18.738v27.773zm15.708 93.173v49.53l-76.834-44.193c3.362-10.979 9.569-24.069 18.462-38.911zm-79.788 22.268c0-.429.012-.868.028-1.309l79.76 45.876v42.395c-44.632-3.817-79.788-41.358-79.788-86.962zm56.36 147.768c18.369-11.465 42.107-11.465 60.477 0l37.498 23.404c-.456 2.356-.874 4.724-1.21 7.116l-.517 3.678h-131.019l-.517-3.678c-.363-2.58-.82-5.133-1.322-7.671zm39.69 135.108h-18.904c-8.756 0-16.259-5.472-19.269-13.176h57.441c-3.009 7.704-10.511 13.176-19.268 13.176zm49.266-36.362c0 4.514-3.672 8.186-8.186 8.186h-101.064c-4.514 0-8.186-3.672-8.186-8.186v-7.795h117.436zm20.82-26.863c0 2.243-1.825 4.068-4.069 4.068h-149.938c-2.244 0-4.069-1.825-4.069-4.068v-18.616c0-2.243 1.825-4.068 4.069-4.068h149.938c2.244 0 4.069 1.825 4.069 4.068z"/><path d="m453.521 82.422c1.314 0 2.646-.345 3.854-1.071l17.398-10.449c3.551-2.133 4.701-6.74 2.568-10.291-2.132-3.551-6.74-4.701-10.291-2.568l-17.398 10.449c-3.551 2.133-4.701 6.74-2.568 10.291 1.406 2.342 3.89 3.639 6.437 3.639z"/><path d="m474.773 307.01-17.398-10.449c-3.552-2.133-8.159-.983-10.291 2.568s-.982 8.158 2.568 10.291l17.398 10.449c1.209.726 2.54 1.071 3.854 1.071 2.547 0 5.03-1.297 6.437-3.64 2.133-3.55.983-8.157-2.568-10.29z"/><path d="m485.351 181.456h-18.499c-4.142 0-7.5 3.358-7.5 7.5s3.358 7.5 7.5 7.5h18.499c4.142 0 7.5-3.358 7.5-7.5s-3.358-7.5-7.5-7.5z"/><path d="m63.786 68.492-17.399-10.449c-3.552-2.133-8.159-.983-10.291 2.568s-.982 8.158 2.568 10.291l17.398 10.449c1.209.726 2.54 1.071 3.854 1.071 2.547 0 5.03-1.297 6.437-3.64 2.134-3.55.984-8.157-2.567-10.29z"/><path d="m56.063 296.561-17.398 10.449c-3.551 2.133-4.701 6.74-2.568 10.291 1.407 2.342 3.89 3.64 6.437 3.64 1.314 0 2.646-.345 3.854-1.071l17.398-10.449c3.551-2.133 4.701-6.74 2.568-10.291-2.132-3.551-6.739-4.702-10.291-2.569z"/><path d="m54.086 188.956c0-4.142-3.358-7.5-7.5-7.5h-18.499c-4.142 0-7.5 3.358-7.5 7.5s3.358 7.5 7.5 7.5h18.499c4.142 0 7.5-3.358 7.5-7.5z"/></g></svg>